<svg id="Layer_1" data-name="Layer 1" xmlns="http://www.w3.org/2000/svg" viewBox="10 6 60 60"><defs><style>.cls-1{fill:#f0b637;}.cls-2{fill:#1e69cc;}.cls-3{fill:#b3b3b7;}</style></defs><title>autonomiq-logos-final_mark-white</title><path class="cls-1" d="M37.5,5.91A26.65,26.65,0,0,0,31,6.73l2.1,6.19a19.78,19.78,0,0,1,4.45-.52,20,20,0,0,1,8.35,38.25L48,56.84A26.54,26.54,0,0,0,37.5,5.91Z"/><path class="cls-2" d="M37.5,52.48a20,20,0,0,1-8-38.39l-2.1-6.17a26.53,26.53,0,0,0,17,50.15l-2.1-6.18A20.31,20.31,0,0,1,37.5,52.48Z"/><polygon class="cls-3" points="44.83 51.52 46.16 47.95 54.27 68.68 47.25 60.54 45.49 63.38 36.92 42.24 44.83 51.52"/></svg>