<svg id="Layer_1" data-name="Layer 1" xmlns="http://www.w3.org/2000/svg" viewBox="0 0 17 18"><defs><style>.cls-1{fill:#0aa0ecf2;}</style></defs><title>rating</title><path class="cls-1" d="M14.82,11.49a1.69,1.69,0,0,0,0-2.16,1.57,1.57,0,0,0-.37-1.8A3.24,3.24,0,0,0,12.13,7a9,9,0,0,0-1.44.19h0l-.46.09a5.22,5.22,0,0,1,.36-1.7,3.12,3.12,0,0,0-.07-2.83A1.86,1.86,0,0,0,9,2a.71.71,0,0,0-.56.26,1.93,1.93,0,0,0-.25,1.39c-.38,1-1.46,3.57-2.38,4.27l0,0a3.42,3.42,0,0,0-.58.86,1.2,1.2,0,0,0-.57-.14H2.86A1.21,1.21,0,0,0,1.65,9.89v4.74a1.22,1.22,0,0,0,1.21,1.22H4.65a1.21,1.21,0,0,0,.7-.22l.68.08a30.35,30.35,0,0,0,3.89.21c.35,0,.68,0,1,0a6.67,6.67,0,0,0,1.36-.12,2.54,2.54,0,0,0,1.81-1.13,1.73,1.73,0,0,0,.2-1.11,1.89,1.89,0,0,0,.67-1.52,2.53,2.53,0,0,0-.12-.59Zm-12,3.57a.42.42,0,0,1-.42-.43V9.89a.42.42,0,0,1,.42-.43H4.65a.42.42,0,0,1,.42.43v4.74a.42.42,0,0,1-.42.43Zm11.21-3.91a.39.39,0,0,0-.05.48,1.09,1.09,0,0,1,.13.48,1.17,1.17,0,0,1-.55,1,.38.38,0,0,0-.13.44,1.08,1.08,0,0,1-.08.76,1.83,1.83,0,0,1-1.29.74,7.89,7.89,0,0,1-2.13.06h0a28.35,28.35,0,0,1-3.8-.2h0l-.3,0a1.09,1.09,0,0,0,0-.26V9.89a1.15,1.15,0,0,0-.06-.37,2.53,2.53,0,0,1,.55-1C7.66,7.48,8.94,4,9,3.83a.34.34,0,0,0,0-.2,1.83,1.83,0,0,1,0-.85,1.09,1.09,0,0,1,.83.4,2.52,2.52,0,0,1,0,2.12c-.49,1.49-.53,2.27-.14,2.61a.63.63,0,0,0,.63.12l.51-.11h0c.9-.2,2.5-.32,3.06.19A.83.83,0,0,1,14,9.17a.39.39,0,0,0,.07.51,1.12,1.12,0,0,1,.32.68,1.1,1.1,0,0,1-.36.79Zm0,0"/></svg>